HIERARCHY
ROOT hip
{
  OFFSET 0 0 0
  CHANNELS 6 Xposition Yposition Zposition Zrotation Yrotation Xrotation
  JOINT abdomen
  {
    OFFSET 0 20.6881 -0.73152
    CHANNELS 3 Zrotation Xrotation Yrotation
    JOINT chest
    {
      OFFSET 0 11.7043 -0.48768
      CHANNELS 3 Zrotation Xrotation Yrotation
      JOINT neck
      {
        OFFSET 0 22.1894 -2.19456
        CHANNELS 3 Zrotation Xrotation Yrotation
        JOINT head
        {
          OFFSET -0.24384 7.07133 1.2192
          CHANNELS 3 Zrotation Xrotation Yrotation
          JOINT leftEye
          {
            OFFSET 4.14528 8.04674 8.04672
            CHANNELS 3 Zrotation Xrotation Yrotation
            End Site
            {
              OFFSET 1 0 0
            }
          }
          JOINT rightEye
          {
            OFFSET -3.6576 8.04674 8.04672
            CHANNELS 3 Zrotation Xrotation Yrotation
            End Site
            {
              OFFSET 1 0 0
            }
          }
        }
      }
      JOINT rCollar
      {
        OFFSET -2.68224 19.2634 -4.8768
        CHANNELS 3 Zrotation Xrotation Yrotation
        JOINT rShldr
        {
          OFFSET -8.77824 -1.95073 1.46304
          CHANNELS 3 Zrotation Xrotation Yrotation
          JOINT rForeArm
          {
            OFFSET -28.1742 -1.7115 0.48768
            CHANNELS 3 Zrotation Xrotation Yrotation
            JOINT rHand
            {
              OFFSET -22.5879 0.773209 7.07136
              CHANNELS 3 Zrotation Xrotation Yrotation
              JOINT rThumb1
              {
                OFFSET -1.2192 -0.487915 3.41376
                CHANNELS 3 Zrotation Xrotation Yrotation
                JOINT rThumb2
                {
                  OFFSET -3.37035 -0.52449 3.41376
                  CHANNELS 3 Zrotation Xrotation Yrotation
                  End Site
                  {
                    OFFSET -1.78271 -1.18214 1.43049
                  }
                }
              }
              JOINT rIndex1
              {
                OFFSET -7.75947 0.938293 5.60832
                CHANNELS 3 Zrotation Xrotation Yrotation
                JOINT rIndex2
                {
                  OFFSET -2.54057 -0.884171 1.56538
                  CHANNELS 3 Zrotation Xrotation Yrotation
                  End Site
                  {
                    OFFSET -1.62519 -0.234802 1.16502
                  }
                }
              }
              JOINT rMid1
              {
                OFFSET -8.24714 1.18213 3.41376
                CHANNELS 3 Zrotation Xrotation Yrotation
                JOINT rMid2
                {
                  OFFSET -3.10165 -0.590103 1.0647
                  CHANNELS 3 Zrotation Xrotation Yrotation
                  End Site
                  {
                    OFFSET -2.48547 -0.328903 0.83742
                  }
                }
              }
              JOINT rRing1
              {
                OFFSET -8.82822 0.546677 1.51678
                CHANNELS 3 Zrotation Xrotation Yrotation
                JOINT rRing2
                {
                  OFFSET -2.60934 -0.819778 -0.0198488
                  CHANNELS 3 Zrotation Xrotation Yrotation
                  End Site
                  {
                    OFFSET -2.33842 -0.294052 0.168128
                  }
                }
              }
              JOINT rPinky1
              {
                OFFSET -8.27202 -0.0477905 -0.4584
                CHANNELS 3 Zrotation Xrotation Yrotation
                JOINT rPinky2
                {
                  OFFSET -1.82734 -0.647385 -0.700984
                  CHANNELS 3 Zrotation Xrotation Yrotation
                  End Site
                  {
                    OFFSET -1.69225 -0.51767 -0.607171
                  }
                }
              }
            }
          }
        }
      }
      JOINT lCollar
      {
        OFFSET 2.68224 19.2634 -4.8768
        CHANNELS 3 Zrotation Xrotation Yrotation
        JOINT lShldr
        {
          OFFSET 8.77824 -1.95073 1.46304
          CHANNELS 3 Zrotation Xrotation Yrotation
          JOINT lForeArm
          {
            OFFSET 28.1742 -1.7115 0.48768
            CHANNELS 3 Zrotation Xrotation Yrotation
            JOINT lHand
            {
              OFFSET 22.5879 0.773209 7.07136
              CHANNELS 3 Zrotation Xrotation Yrotation
              JOINT lThumb1
              {
                OFFSET 1.2192 -0.487915 3.41376
                CHANNELS 3 Zrotation Xrotation Yrotation
                JOINT lThumb2
                {
                  OFFSET 3.37035 -0.52449 3.41376
                  CHANNELS 3 Zrotation Xrotation Yrotation
                  End Site
                  {
                    OFFSET 1.78271 -1.18214 1.43049
                  }
                }
              }
              JOINT lIndex1
              {
                OFFSET 7.75947 0.938293 5.60832
                CHANNELS 3 Zrotation Xrotation Yrotation
                JOINT lIndex2
                {
                  OFFSET 2.54057 -0.884171 1.56538
                  CHANNELS 3 Zrotation Xrotation Yrotation
                  End Site
                  {
                    OFFSET 1.62519 -0.234802 1.16502
                  }
                }
              }
              JOINT lMid1
              {
                OFFSET 8.24714 1.18213 3.41376
                CHANNELS 3 Zrotation Xrotation Yrotation
                JOINT lMid2
                {
                  OFFSET 3.10165 -0.590103 1.0647
                  CHANNELS 3 Zrotation Xrotation Yrotation
                  End Site
                  {
                    OFFSET 2.48547 -0.328903 0.83742
                  }
                }
              }
              JOINT lRing1
              {
                OFFSET 8.82822 0.546677 1.51678
                CHANNELS 3 Zrotation Xrotation Yrotation
                JOINT lRing2
                {
                  OFFSET 2.60934 -0.819778 -0.0198488
                  CHANNELS 3 Zrotation Xrotation Yrotation
                  End Site
                  {
                    OFFSET 2.33842 -0.294052 0.168128
                  }
                }
              }
              JOINT lPinky1
              {
                OFFSET 8.27202 -0.0477905 -0.4584
                CHANNELS 3 Zrotation Xrotation Yrotation
                JOINT lPinky2
                {
                  OFFSET 1.82734 -0.647385 -0.700984
                  CHANNELS 3 Zrotation Xrotation Yrotation
                  End Site
                  {
                    OFFSET 1.69225 -0.51767 -0.607171
                  }
                }
              }
            }
          }
        }
      }
    }
  }
  JOINT rButtock
  {
    OFFSET -8.77824 4.35084 1.2192
    CHANNELS 3 Zrotation Xrotation Yrotation
    JOINT rThigh
    {
      OFFSET 0 -1.70687 -2.19456
      CHANNELS 3 Zrotation Xrotation Yrotation
      JOINT rShin
      {
        OFFSET 0 -36.8199 0.73152
        CHANNELS 3 Zrotation Xrotation Yrotation
        JOINT rFoot
        {
          OFFSET 0.73152 -45.1104 -5.12064
          CHANNELS 3 Zrotation Xrotation Yrotation
          End Site
          {
            OFFSET -1.1221 -3.69964 12.103
          }
        }
      }
    }
  }
  JOINT lButtock
  {
    OFFSET 8.77824 4.35084 1.2192
    CHANNELS 3 Zrotation Xrotation Yrotation
    JOINT lThigh
    {
      OFFSET 0 -1.70687 -2.19456
      CHANNELS 3 Zrotation Xrotation Yrotation
      JOINT lShin
      {
        OFFSET 0 -36.8199 0.73152
        CHANNELS 3 Zrotation Xrotation Yrotation
        JOINT lFoot
        {
          OFFSET -0.73152 -45.1104 -5.12064
          CHANNELS 3 Zrotation Xrotation Yrotation
          End Site
          {
            OFFSET 1.1221 -3.69964 12.103
          }
        }
      }
    }
  }
}
MOTION
Frames:	7
Frame Time:	0.00833333
2.97077 84.8855 211.748 0.0 0.0 0.0 -0.188093 -0.00125238 -0.00538536 -0.051927 -0.00198484 -0.00899607 -6.7935e-15 0.0 6.21202e-17 -2.03475e-14 3.18055e-15 2.04997e-16 -0.0 0.0 0.0 -0.0 0.0 0.0 -3.43046e-15 2.52363e-18 1.49089e-16 -6.96238e-14 -1.86361e-17 1.39149e-15 -1.22108e-12 3.68547e-13 0.0 -1.40461e-11 -3.61266e-13 1.33583e-13 -3.31225e-11 1.57472e-14 3.02153e-13 -5.72031e-11 2.54444e-14 5.12069e-13 -3.31155e-11 1.74931e-14 2.8943e-13 7.73091 5.47488 0.417314 -3.31219e-11 1.55052e-14 3.05333e-13 2.90554 0.965183 0.102902 -3.31064e-11 1.64991e-14 2.94996e-13 10.2786 0.731801 0.0259123 -3.31277e-11 1.74931e-14 3.02153e-13 2.22167 -0.733487 -0.20892 -3.42784e-15 2.52363e-18 -4.96962e-17 -7.39377e-14 1.98785e-16 -7.95139e-16 -1.22958e-12 -3.65764e-13 5.08889e-14 -1.40437e-11 3.73492e-13 9.22361e-14 -3.31294e-11 1.49271e-14 2.8943e-13 -5.72011e-11 2.22639e-14 5.09684e-13 -3.31346e-11 1.66979e-14 2.98972e-13 -7.73091 5.47488 -0.417314 -3.31304e-11 1.54058e-14 2.8943e-13 -2.90554 0.965183 -0.102902 -3.31381e-11 1.5207e-14 2.93406e-13 -10.2786 0.731801 -0.0259123 -3.31273e-11 1.43125e-14 2.8943e-13 -2.22167 -0.733487 0.20892 -2.03217e-16 0.0 -3.88251e-19 0.336763 -2.83766 -0.0337248 -0.00646414 -0.412346 -0.0567823 -0.478903 3.24961 0.120278 2.03217e-16 0.0 3.88251e-19 -0.623507 -3.58112 0.0516566 0.00431606 0.934355 0.0368621 0.481704 2.64641 -0.108452
2.51134 80.7304 206.687 -178.965 2.0094 -152.389 -2.39926 -7.54139 -0.0551712 0.798828 -0.48298 0.505656 -0.75004 0.6148 -0.168526 1.23406 3.10382 -1.34939 -0.0 0.0 0.0 -0.0 0.0 0.0 1.30382e-14 -3.54579e-14 -1.4401e-14 21.1701 7.95298 -2.82681 -1.99195 -0.687049 3.30784 0.00636216 1.8211 0.255527 -8.47888e-10 5.10002e-11 3.28586e-11 -1.46601e-09 8.74048e-11 6.18945e-11 -8.47881e-10 5.10006e-11 3.28459e-11 7.73091 5.47488 0.417314 -8.47888e-10 5.09987e-11 3.28581e-11 2.90554 0.965183 0.102902 -8.47876e-10 5.0999e-11 3.28513e-11 10.2786 0.731801 0.0259123 -8.47894e-10 5.10005e-11 3.28594e-11 2.22167 -0.733487 -0.20892 1.3057e-14 -3.5461e-14 -1.45544e-14 -21.2925 0.57038 4.38922 3.65304 -1.56116 -5.80836 -0.00278374 1.18775 -0.166804 -4.43521e-10 1.2407e-11 -6.27965e-10 -7.69264e-10 2.13029e-11 -1.08442e-09 -4.43526e-10 1.24087e-11 -6.27955e-10 -7.73091 5.47488 -0.417314 -4.43521e-10 1.24069e-11 -6.27963e-10 -2.90554 0.965183 -0.102902 -4.43528e-10 1.24072e-11 -6.27961e-10 -10.2786 0.731801 -0.0259123 -4.43519e-10 1.24078e-11 -6.27963e-10 -2.22167 -0.733487 0.20892 -2.03217e-16 0.0 -3.88251e-19 1.95664 -12.6328 -5.99961 -0.0911854 15.8821 0.113597 -0.0553657 9.42247 -7.15559 2.03217e-16 0.0 3.88251e-19 -3.85511 -16.8403 -1.17642 0.00868784 12.8338 -0.117023 1.82064 -8.8605 6.45614
2.54601 80.7958 206.757 -178.927 1.9137 -152.316 -4.75262 -15.5055 -0.112527 1.70931 -0.991949 1.04886 -1.53206 1.26015 -0.350378 2.69388 6.35474 -2.78819 -0.0 0.0 0.0 -0.0 0.0 0.0 3.18961e-14 -6.86507e-14 -2.9358e-14 44.4391 16.314 -5.99076 -4.01897 -1.40907 6.81857 -0.00476167 3.69636 0.519558 -1.72313e-09 1.1346e-10 2.60839e-11 -2.9798e-09 1.94623e-10 5.56486e-11 -1.72312e-09 1.13459e-10 2.60712e-11 7.73091 5.47488 0.417314 -1.72313e-09 1.13457e-10 2.60794e-11 2.90554 0.965183 0.102902 -1.72312e-09 1.13457e-10 2.60765e-11 10.2786 0.731801 0.0259123 -1.72314e-09 1.13459e-10 2.60857e-11 2.22167 -0.733487 -0.20892 3.19346e-14 -6.86575e-14 -2.94605e-14 -43.9025 1.12071 9.0283 7.16976 -3.1562 -11.9579 0.00188676 2.46669 -0.346661 -9.15346e-10 3.4328e-11 -1.28084e-09 -1.58768e-09 5.89923e-11 -2.21172e-09 -9.15351e-10 3.43296e-11 -1.28083e-09 -7.73091 5.47488 -0.417314 -9.15345e-10 3.43273e-11 -1.28084e-09 -2.90554 0.965183 -0.102902 -9.15352e-10 3.43281e-11 -1.28083e-09 -10.2786 0.731801 -0.0259123 -9.15344e-10 3.43304e-11 -1.28084e-09 -2.22167 -0.733487 0.20892 -2.03217e-16 0.0 -3.88251e-19 1.30434 -22.5858 -13.0248 -0.302462 33.1015 0.340122 2.12872 15.5308 -15.2191 2.03217e-16 0.0 3.88251e-19 -7.98022 -30.8339 -2.75737 0.0890975 25.4102 -0.303167 6.24382 -20.5482 14.1498
2.52488 80.7874 206.893 -178.993 1.7308 -152.206 -6.86375 -22.6216 -0.166089 2.52626 -1.44451 1.53539 -2.23927 1.84434 -0.505811 4.14533 9.29066 -4.09604 -0.0 0.0 0.0 -0.0 0.0 0.0 4.59756e-14 -1.06379e-13 -4.35012e-14 66.0373 23.6158 -9.17282 -5.73905 -2.03369 9.92912 -0.0298314 5.46286 0.769688 -2.47742e-09 1.52969e-10 9.79714e-11 -4.28361e-09 2.62163e-10 1.84659e-10 -2.47741e-09 1.52967e-10 9.79587e-11 7.73091 5.47488 0.417314 -2.47742e-09 1.52965e-10 9.79635e-11 2.90554 0.965183 0.102902 -2.47741e-09 1.52964e-10 9.79639e-11 10.2786 0.731801 0.0259123 -2.47743e-09 1.52966e-10 9.7974e-11 2.22167 -0.733487 -0.20892 4.60267e-14 -1.06388e-13 -4.35637e-14 -64.1371 1.67104 13.1727 10.0234 -4.4913 -17.474 0.01243 3.56314 -0.501273 -1.2643e-09 3.71912e-11 -1.88447e-09 -2.19339e-09 6.38643e-11 -3.25427e-09 -1.26431e-09 3.71927e-11 -1.88446e-09 -7.73091 5.47488 -0.417314 -1.2643e-09 3.71899e-11 -1.88447e-09 -2.90554 0.965183 -0.102902 -1.26431e-09 3.71912e-11 -1.88447e-09 -10.2786 0.731801 -0.0259123 -1.2643e-09 3.71949e-11 -1.88447e-09 -2.22167 -0.733487 0.20892 -2.03217e-16 0.0 -3.88251e-19 -1.66767 -30.7568 -20.4758 -0.666509 48.4692 0.665662 5.63195 20.3975 -22.9271 2.03217e-16 0.0 3.88251e-19 -12.5719 -43.2691 -4.78326 0.24757 36.6316 -0.518406 13.2302 -30.0365 22.5069
2.50728 80.7763 206.958 -179.049 1.6381 -152.214 -8.3363 -27.6179 -0.198687 3.09111 -1.75649 1.87985 -2.76737 2.27568 -0.594969 5.26781 11.4584 -5.03283 -0.0 0.0 0.0 -0.0 0.0 0.0 4.81092e-14 -1.55445e-13 -5.561e-14 81.618 28.4975 -11.7404 -6.86154 -2.44172 12.0337 -0.0597447 6.95778 0.982735 -2.92932e-09 1.351e-10 3.66514e-10 -5.0625e-09 2.30508e-10 6.51813e-10 -2.92932e-09 1.35098e-10 3.66502e-10 7.73091 5.47488 0.417314 -2.92932e-09 1.35096e-10 3.66505e-10 2.90554 0.965183 0.102902 -2.92932e-09 1.35094e-10 3.66507e-10 10.2786 0.731801 0.0259123 -2.92933e-09 1.35097e-10 3.66518e-10 2.22167 -0.733487 -0.20892 4.81555e-14 -1.55454e-13 -5.56597e-14 -78.2818 2.25272 16.0775 11.8706 -5.35834 -21.3599 0.0217201 4.20351 -0.591838 -1.3061e-09 -7.59011e-12 -2.36501e-09 -2.26733e-09 -1.33074e-11 -4.08491e-09 -1.3061e-09 -7.5888e-12 -2.365e-09 -7.73091 5.47488 -0.417314 -1.30609e-09 -7.59159e-12 -2.365e-09 -2.90554 0.965183 -0.102902 -1.3061e-09 -7.59e-12 -2.365e-09 -10.2786 0.731801 -0.0259123 -1.30609e-09 -7.58562e-12 -2.365e-09 -2.22167 -0.733487 0.20892 -2.03217e-16 0.0 -3.88251e-19 -5.31738 -35.8458 -26.6194 -1.12929 59.2092 1.07382 9.00914 23.422 -28.6638 2.03217e-16 0.0 3.88251e-19 -16.6585 -51.8859 -6.93664 0.429605 44.4662 -0.720624 20.1327 -35.7847 29.6233
2.46839 80.6823 207.01 -179.068 1.6708 -152.303 -8.89355 -29.6494 -0.176338 3.28961 -1.87939 2.03051 -3.05366 2.4896 -0.595048 5.80561 12.5884 -5.43349 -0.0 0.0 0.0 -0.0 0.0 0.0 2.81091e-14 -2.45785e-13 -6.77021e-14 87.8183 30.1845 -12.9449 -7.22322 -2.56583 12.7309 -0.0842875 8.05957 1.14064 -3.05587e-09 7.90269e-12 1.14906e-09 -5.27328e-09 9.40716e-12 2.00601e-09 -3.05586e-09 7.90025e-12 1.14905e-09 7.73091 5.47488 0.417314 -3.05587e-09 7.89847e-12 1.14905e-09 2.90554 0.965183 0.102902 -3.05586e-09 7.89678e-12 1.14906e-09 10.2786 0.731801 0.0259123 -3.05587e-09 7.89845e-12 1.14907e-09 2.22167 -0.733487 -0.20892 2.81228e-14 -2.45791e-13 -6.77782e-14 -83.8358 2.94958 17.2509 12.5937 -5.70165 -22.9523 0.0222416 4.16957 -0.587076 -8.03528e-10 -1.98112e-10 -2.84474e-09 -1.39966e-09 -3.41844e-10 -4.91583e-09 -8.03532e-10 -1.98111e-10 -2.84472e-09 -7.73091 5.47488 -0.417314 -8.03525e-10 -1.98113e-10 -2.84473e-09 -2.90554 0.965183 -0.102902 -8.03532e-10 -1.98111e-10 -2.84473e-09 -10.2786 0.731801 -0.0259123 -8.03526e-10 -1.98107e-10 -2.84473e-09 -2.22167 -0.733487 0.20892 -2.03217e-16 0.0 -3.88251e-19 -7.19512 -37.7282 -29.2562 -1.41111 63.4765 1.32324 10.6925 24.7507 -31.0159 2.03217e-16 0.0 3.88251e-19 -18.6378 -55.249 -8.13687 0.524326 47.5628 -0.817018 23.4108 -37.7902 32.8372
2.49402 80.7515 206.994 -179.082 1.8152 -152.32 -8.79404 -29.5632 -0.113378 3.22478 -1.86697 2.04241 -3.16775 2.5484 -0.531269 5.8882 12.9802 -5.44019 -0.0 0.0 0.0 -0.0 0.0 0.0 -7.44306e-15 -3.64398e-13 -7.96474e-14 87.0563 29.6479 -13.0152 -7.0561 -2.49174 12.4218 -0.101989 8.88123 1.25883 -2.94534e-09 -1.96006e-10 2.28739e-09 -5.07031e-09 -3.44603e-10 3.97412e-09 -2.94534e-09 -1.96008e-10 2.28738e-09 7.73091 5.47488 0.417314 -2.94535e-09 -1.9601e-10 2.28738e-09 2.90554 0.965183 0.102902 -2.94534e-09 -1.96011e-10 2.28738e-09 10.2786 0.731801 0.0259123 -2.94535e-09 -1.96011e-10 2.28739e-09 2.22167 -0.733487 -0.20892 -7.48181e-15 -3.64397e-13 -7.97779e-14 -83.2217 3.73828 17.1882 12.5761 -5.70753 -22.8982 0.01653 3.65567 -0.514465 8.24249e-11 -4.8897e-10 -3.31572e-09 1.31194e-10 -8.43426e-10 -5.73279e-09 8.24227e-11 -4.88969e-10 -3.3157e-09 -7.73091 5.47488 -0.417314 8.24276e-11 -4.88971e-10 -3.31571e-09 -2.90554 0.965183 -0.102902 8.24202e-11 -4.88969e-10 -3.31571e-09 -10.2786 0.731801 -0.0259123 8.24265e-11 -4.88966e-10 -3.31572e-09 -2.22167 -0.733487 0.20892 -2.03217e-16 0.0 -3.88251e-19 -7.10048 -37.6706 -28.9071 -1.38686 63.1217 1.29208 10.8058 25.1377 -30.7937 2.03217e-16 0.0 3.88251e-19 -18.5263 -54.8983 -8.13004 0.514663 47.2755 -0.802643 23.1784 -37.6216 32.6316
